<svg width="57" height="42" viewBox="0 0 57 42" fill="none" xmlns="http://www.w3.org/2000/svg">
<path d="M0.727228 40.157H2.28233V40.8522H0V37.1655H2.25598V37.8608H0.727739V38.6455H2.12475V39.3301H0.727739L0.727228 40.157Z" fill="white"/>
<path d="M8.37107 37.1671C8.60798 37.1615 8.84339 37.206 9.06189 37.2976C9.28045 37.3893 9.47707 37.5261 9.63896 37.6991C9.9657 38.0578 10.1468 38.5256 10.1468 39.0107C10.1468 39.4958 9.9657 39.9635 9.63896 40.3223C9.47714 40.4953 9.28052 40.6322 9.06195 40.724C8.84345 40.8158 8.60805 40.8604 8.37107 40.8548H6.90552V37.1682L8.37107 37.1671ZM8.37107 40.1596C8.51626 40.1649 8.66092 40.1392 8.79536 40.0842C8.92987 40.0293 9.05108 39.9463 9.15099 39.8409C9.34518 39.608 9.45158 39.3144 9.45158 39.0112C9.45158 38.708 9.34518 38.4144 9.15099 38.1814C9.05108 38.076 8.92987 37.9931 8.79536 37.9381C8.66092 37.8832 8.51626 37.8576 8.37107 37.8628H7.63328V40.1569L8.37107 40.1596Z" fill="white"/>
<path d="M16.1249 40.9285C15.756 40.9432 15.395 40.8192 15.1131 40.5809C14.982 40.4646 14.8784 40.3205 14.81 40.1592C14.7415 39.9978 14.7099 39.8233 14.7174 39.6482V37.1671H15.4398V39.5897C15.4354 39.6734 15.4478 39.7571 15.4763 39.8359C15.5048 39.9147 15.5489 39.987 15.6059 40.0484C15.7569 40.158 15.9386 40.2169 16.1252 40.2169C16.3117 40.2169 16.4936 40.158 16.6445 40.0484C16.7015 39.987 16.7455 39.9147 16.7741 39.8359C16.8026 39.7571 16.815 39.6734 16.8105 39.5897V37.1671H17.5378V39.6482C17.5453 39.8232 17.5137 39.9978 17.4454 40.1591C17.377 40.3205 17.2735 40.4645 17.1425 40.5809C16.8588 40.82 16.4957 40.944 16.1249 40.9285Z" fill="white"/>
<path d="M24.0526 40.9285C23.7976 40.9364 23.5436 40.8913 23.3069 40.7962C23.0701 40.7009 22.8558 40.5578 22.6773 40.3755C22.3284 40.0062 22.134 39.5175 22.134 39.0096C22.134 38.5017 22.3284 38.013 22.6773 37.6437C22.8562 37.4622 23.0707 37.3196 23.3074 37.2249C23.5441 37.1302 23.7978 37.0854 24.0526 37.0934C24.3762 37.0908 24.6948 37.1715 24.978 37.3278C25.252 37.4757 25.4806 37.6952 25.6394 37.9629L25.0123 38.3262C24.9222 38.1624 24.7868 38.028 24.6223 37.9391C24.3915 37.8209 24.1299 37.7764 23.8729 37.8117C23.616 37.8471 23.376 37.9605 23.1858 38.1367C22.973 38.3773 22.8556 38.6874 22.8556 39.0085C22.8556 39.3297 22.973 39.6398 23.1858 39.8804C23.2992 39.9934 23.4347 40.0816 23.5839 40.1397C23.7331 40.1977 23.8927 40.2242 24.0526 40.2175C24.252 40.2203 24.4488 40.1723 24.6245 40.0779C24.7883 39.9914 24.923 39.8587 25.0117 39.6961L25.6389 40.0595C25.4807 40.3266 25.253 40.5459 24.9802 40.6941C24.6964 40.8509 24.3769 40.9317 24.0526 40.9285Z" fill="white"/>
<path d="M32.6091 40.8548L32.3747 40.1912H30.8585L30.6372 40.8548H29.8521L31.1437 37.1682H32.0448L33.3464 40.8548H32.6091ZM31.0957 39.5112H32.1343L31.6016 38.0045L31.0957 39.5112Z" fill="white"/>
<path d="M39.4352 40.2175C39.6346 40.2203 39.8313 40.1723 40.007 40.0779C40.1708 39.9913 40.3054 39.8586 40.3942 39.6961L41.0214 40.0595C40.8881 40.284 40.7051 40.4749 40.4865 40.6177C40.2613 40.766 40.0071 40.8647 39.7408 40.9074V41.097C39.8396 41.119 39.9306 41.1673 40.0043 41.2366C40.0404 41.2716 40.0687 41.3139 40.0873 41.3607C40.106 41.4074 40.1145 41.4575 40.1123 41.5077C40.1123 41.8768 39.7259 42.0383 38.953 41.9923V41.5131C39.3324 41.5376 39.5221 41.5026 39.5221 41.4077C39.5221 41.3375 39.4115 41.2936 39.1902 41.2761V40.9127C38.7236 40.8698 38.2919 40.648 37.9855 40.2938C37.6714 39.9194 37.5058 39.4427 37.5199 38.9543C37.5339 38.4658 37.7268 37.9996 38.0619 37.6437C38.2409 37.4622 38.4555 37.3196 38.6923 37.2249C38.9291 37.1302 39.1829 37.0854 39.4378 37.0934C39.7613 37.0908 40.08 37.1715 40.3632 37.3278C40.6371 37.4757 40.8657 37.6952 41.0245 37.9629L40.3975 38.3262C40.3074 38.1625 40.172 38.028 40.0075 37.9392C39.7767 37.8209 39.5151 37.7764 39.258 37.8117C39.0011 37.8471 38.7612 37.9605 38.571 38.1367C38.3582 38.3773 38.2407 38.6874 38.2407 39.0085C38.2407 39.3297 38.3582 39.6398 38.571 39.8804C38.684 39.9931 38.8191 40.0811 38.9679 40.1391C39.1166 40.1971 39.2757 40.2238 39.4352 40.2175Z" fill="white"/>
<path d="M47.991 40.8553L47.7565 40.1917H46.2404L46.019 40.8553H45.2339L46.5255 37.1687H47.4266L48.7282 40.8553H47.991ZM46.9149 36.7247C46.813 36.6545 46.741 36.6264 46.6989 36.6405C46.6567 36.6545 46.6356 36.7247 46.6356 36.8511H46.0876C46.0837 36.7114 46.1015 36.572 46.1403 36.4377C46.1668 36.3408 46.2187 36.2526 46.2905 36.1823C46.352 36.1268 46.4277 36.0894 46.5091 36.0743C46.5968 36.0584 46.687 36.0629 46.7726 36.0875C46.87 36.1149 46.9625 36.1576 47.0466 36.2139C47.1485 36.2841 47.2197 36.3122 47.2601 36.2981C47.3005 36.2841 47.3207 36.2139 47.3207 36.0875H47.874C47.88 36.2559 47.8503 36.4237 47.7871 36.5799C47.7461 36.6897 47.6652 36.78 47.5604 36.8327C47.464 36.8735 47.3576 36.8845 47.2548 36.8643C47.1334 36.8406 47.0179 36.7932 46.9149 36.7247ZM46.4775 39.5118H47.5162L46.985 38.0061L46.4775 39.5118Z" fill="white"/>
<path d="M56.1717 40.3729C55.8561 40.6929 55.4391 40.8935 54.9919 40.9403C54.5448 40.9872 54.0952 40.8775 53.72 40.6299C53.3448 40.3823 53.0673 40.0121 52.9348 39.5828C52.8024 39.1534 52.8231 38.6913 52.9936 38.2756C53.1641 37.8598 53.4738 37.5161 53.8698 37.3031C54.2657 37.0902 54.7233 37.0213 55.1645 37.1081C55.6056 37.1949 56.0029 37.4321 56.2885 37.7791C56.5741 38.1262 56.7302 38.5616 56.7303 39.0109C56.7352 39.264 56.688 39.5154 56.592 39.7496C56.4959 39.9839 56.3529 40.196 56.1717 40.3729ZM53.9627 39.8778C54.1913 40.0959 54.4953 40.2175 54.8113 40.2175C55.1274 40.2175 55.4313 40.0959 55.66 39.8778C55.8809 39.6423 56.0038 39.3316 56.0038 39.0088C56.0038 38.686 55.8809 38.3754 55.66 38.1399C55.4322 37.9202 55.1279 37.7975 54.8113 37.7975C54.4947 37.7975 54.1905 37.9202 53.9627 38.1399C53.7419 38.3754 53.6191 38.6861 53.6191 39.0088C53.6191 39.3316 53.7419 39.6422 53.9627 39.8778Z" fill="white"/>
<path d="M29.1107 11.865H14.5557V17.4665H29.1107V11.865Z" fill="white"/>
<path d="M17.3581 14.6657H11.7532V29.212H17.3581V14.6657Z" fill="white"/>
<path d="M17.3559 17.4666H0.000488281V11.8634H11.752V0.119034H17.3559V17.4666Z" fill="white"/>
<path d="M56.9064 0.119568H51.3015V29.212H56.9064V0.119568Z" fill="white"/>
<path d="M42.1199 29.3316C39.2176 29.3316 36.3804 28.4714 33.9672 26.8599C31.5539 25.2484 29.673 22.9579 28.5623 20.2781C27.4517 17.5983 27.161 14.6495 27.7273 11.8046C28.2935 8.95972 29.6911 6.34655 31.7434 4.29551C33.7957 2.24447 36.4104 0.847685 39.2571 0.281805C42.1037 -0.284077 45.0543 0.00635502 47.7357 1.11637C50.4172 2.22639 52.709 4.10612 54.3215 6.5179C55.934 8.92966 56.7946 11.7652 56.7946 14.6657C56.7903 18.554 55.2428 22.2819 52.4918 25.0313C49.7406 27.7807 46.0106 29.3272 42.1199 29.3316ZM42.1199 5.60151C40.3261 5.60151 38.5726 6.13312 37.0811 7.12911C35.5896 8.1251 34.427 9.54076 33.7406 11.197C33.0541 12.8533 32.8745 14.6758 33.2245 16.4341C33.5744 18.1924 34.4382 19.8075 35.7067 21.0751C36.9751 22.3428 38.5912 23.2061 40.3506 23.5558C42.1099 23.9056 43.9335 23.7261 45.5908 23.0401C47.2481 22.354 48.6646 21.1922 49.6612 19.7016C50.6578 18.211 51.1897 16.4585 51.1897 14.6657C51.1871 12.2626 50.2306 9.95859 48.5303 8.2593C46.83 6.55999 44.5246 5.60416 42.1199 5.60151Z" fill="white"/>
</svg>
